<svg xmlns="http://www.w3.org/2000/svg" viewBox="0 0 16 16" shape-rendering="crispEdges" width="512" height="512">
  <rect x="0" y="0" width="16" height="16" rx="2" fill="#2A6F97"/>
  <rect x="0" y="0" width="16" height="1" fill="#3A8DBE"/>
  <rect x="0" y="0" width="1" height="16" fill="#3A8DBE"/>
  <rect x="0" y="15" width="16" height="1" fill="#1F5375"/>
  <rect x="15" y="0" width="1" height="16" fill="#1F5375"/>
  <rect x="7" y="0" width="1" height="1" fill="#E0A82E"/>
  <rect x="8" y="0" width="1" height="1" fill="#E0A82E"/>
  <rect x="6" y="1" width="1" height="1" fill="#E0A82E"/>
  <rect x="7" y="1" width="1" height="1" fill="#F5ECD2"/>
  <rect x="8" y="1" width="1" height="1" fill="#F5ECD2"/>
  <rect x="9" y="1" width="1" height="1" fill="#E0A82E"/>
  <rect x="6" y="2" width="1" height="1" fill="#E8D5A8"/>
  <rect x="7" y="2" width="1" height="1" fill="#E8D5A8"/>
  <rect x="8" y="2" width="1" height="1" fill="#E8D5A8"/>
  <rect x="9" y="2" width="1" height="1" fill="#E8D5A8"/>
  <rect x="6" y="3" width="1" height="1" fill="#E8D5A8"/>
  <rect x="7" y="3" width="1" height="1" fill="#1F5375"/>
  <rect x="8" y="3" width="1" height="1" fill="#1F5375"/>
  <rect x="9" y="3" width="1" height="1" fill="#E8D5A8"/>
  <rect x="6" y="4" width="1" height="1" fill="#E8D5A8"/>
  <rect x="7" y="4" width="1" height="1" fill="#E8D5A8"/>
  <rect x="8" y="4" width="1" height="1" fill="#E8D5A8"/>
  <rect x="9" y="4" width="1" height="1" fill="#C9A876"/>
  <rect x="6" y="5" width="1" height="1" fill="#E8D5A8"/>
  <rect x="7" y="5" width="1" height="1" fill="#E8D5A8"/>
  <rect x="8" y="5" width="1" height="1" fill="#E8D5A8"/>
  <rect x="9" y="5" width="1" height="1" fill="#C9A876"/>
  <rect x="5" y="6" width="1" height="1" fill="#E8D5A8"/>
  <rect x="6" y="6" width="1" height="1" fill="#E8D5A8"/>
  <rect x="7" y="6" width="1" height="1" fill="#E8D5A8"/>
  <rect x="8" y="6" width="1" height="1" fill="#E8D5A8"/>
  <rect x="9" y="6" width="1" height="1" fill="#E8D5A8"/>
  <rect x="10" y="6" width="1" height="1" fill="#C9A876"/>
  <rect x="6" y="7" width="1" height="1" fill="#E8D5A8"/>
  <rect x="7" y="7" width="1" height="1" fill="#E8D5A8"/>
  <rect x="8" y="7" width="1" height="1" fill="#E8D5A8"/>
  <rect x="9" y="7" width="1" height="1" fill="#C9A876"/>
  <rect x="6" y="8" width="1" height="1" fill="#E8D5A8"/>
  <rect x="7" y="8" width="1" height="1" fill="#E8D5A8"/>
  <rect x="8" y="8" width="1" height="1" fill="#E8D5A8"/>
  <rect x="9" y="8" width="1" height="1" fill="#C9A876"/>
  <rect x="5" y="9" width="1" height="1" fill="#E8D5A8"/>
  <rect x="6" y="9" width="1" height="1" fill="#E8D5A8"/>
  <rect x="7" y="9" width="1" height="1" fill="#E8D5A8"/>
  <rect x="8" y="9" width="1" height="1" fill="#E8D5A8"/>
  <rect x="9" y="9" width="1" height="1" fill="#E8D5A8"/>
  <rect x="10" y="9" width="1" height="1" fill="#C9A876"/>
  <rect x="5" y="10" width="1" height="1" fill="#E8D5A8"/>
  <rect x="6" y="10" width="1" height="1" fill="#E8D5A8"/>
  <rect x="7" y="10" width="1" height="1" fill="#E8D5A8"/>
  <rect x="8" y="10" width="1" height="1" fill="#E8D5A8"/>
  <rect x="9" y="10" width="1" height="1" fill="#E8D5A8"/>
  <rect x="10" y="10" width="1" height="1" fill="#C9A876"/>
  <rect x="5" y="11" width="1" height="1" fill="#E8D5A8"/>
  <rect x="6" y="11" width="1" height="1" fill="#E8D5A8"/>
  <rect x="7" y="11" width="1" height="1" fill="#E8D5A8"/>
  <rect x="8" y="11" width="1" height="1" fill="#E8D5A8"/>
  <rect x="9" y="11" width="1" height="1" fill="#E8D5A8"/>
  <rect x="10" y="11" width="1" height="1" fill="#C9A876"/>
  <rect x="4" y="12" width="1" height="1" fill="#E8D5A8"/>
  <rect x="5" y="12" width="1" height="1" fill="#E8D5A8"/>
  <rect x="6" y="12" width="1" height="1" fill="#E8D5A8"/>
  <rect x="7" y="12" width="1" height="1" fill="#E8D5A8"/>
  <rect x="8" y="12" width="1" height="1" fill="#E8D5A8"/>
  <rect x="9" y="12" width="1" height="1" fill="#E8D5A8"/>
  <rect x="10" y="12" width="1" height="1" fill="#E8D5A8"/>
  <rect x="11" y="12" width="1" height="1" fill="#C9A876"/>
  <rect x="4" y="13" width="1" height="1" fill="#E8D5A8"/>
  <rect x="5" y="13" width="1" height="1" fill="#E8D5A8"/>
  <rect x="6" y="13" width="1" height="1" fill="#E8D5A8"/>
  <rect x="7" y="13" width="1" height="1" fill="#1F5375"/>
  <rect x="8" y="13" width="1" height="1" fill="#1F5375"/>
  <rect x="9" y="13" width="1" height="1" fill="#E8D5A8"/>
  <rect x="10" y="13" width="1" height="1" fill="#E8D5A8"/>
  <rect x="11" y="13" width="1" height="1" fill="#C9A876"/>
  <rect x="3" y="14" width="1" height="1" fill="#E8D5A8"/>
  <rect x="4" y="14" width="1" height="1" fill="#E8D5A8"/>
  <rect x="5" y="14" width="1" height="1" fill="#E8D5A8"/>
  <rect x="6" y="14" width="1" height="1" fill="#E8D5A8"/>
  <rect x="7" y="14" width="1" height="1" fill="#E8D5A8"/>
  <rect x="8" y="14" width="1" height="1" fill="#E8D5A8"/>
  <rect x="9" y="14" width="1" height="1" fill="#E8D5A8"/>
  <rect x="10" y="14" width="1" height="1" fill="#E8D5A8"/>
  <rect x="11" y="14" width="1" height="1" fill="#E8D5A8"/>
  <rect x="12" y="14" width="1" height="1" fill="#C9A876"/>
</svg>
